# xmcd
#
# Track frame offsets: 
#        300
#        15461
#        37652
#        50692
#        66033
#        87409
#        103968
#        118093
#        130878
#        146217
#
# Disc length: 2140 seconds
#
# Revision: 4
# Processed by: cddbd v1.5.2PL0 Copyright (c) Steve Scherf et al.
# Submitted via: ExactAudioCopy v0.99pb5
#
DISCID=8d08580a
DTITLE=Bonnie Raitt - Green Light
DYEAR=1982
DGENRE=Blues Rock
TTITLE0=Keep This Heart In Mind
TTITLE1=River Of Tears
TTITLE2=Can't Get Enough
TTITLE3=Willya Wontcha
TTITLE4=Let's Keep It Between Us
TTITLE5=Me And The Boys
TTITLE6=I Can't Help Myself
TTITLE7=Baby Come Back
TTITLE8=Talk To Me
TTITLE9=Green Lights
EXTD=YEAR: 1982
EXTT0=
EXTT1=
EXTT2=
EXTT3=
EXTT4=
EXTT5=
EXTT6=
EXTT7=
EXTT8=
EXTT9=
PLAYORDER=
